# xmcd CD database file
# Copyright (C) 1997 Ti Kan
# 
# Track frame offsets:
#     150
#     12685
#     23635
#     37210
#     50350
#     62510
#     75800
#     89025
#     100475
#     111235
#     120410
#     133200
#     147060
#     161000
#     173385
#     184000
#     195425
#     207300
#     222060
#     235100
# 
# Disc length: 3288 seconds
# 
# Revision: 1
# Processed by: cddbd v1.4b41PL1 Copyright (c) Steve Scherf et al.
# Submitted via: DiscPlay 4.0.3
# 
DISCID=0d0cd614
DTITLE=Patti Page - The Classic Gold Of
DYEAR=1900
DGENRE=
TTITLE0=Changing Partners
TTITLE1=(How Much Is That) Doggie In The Window
TTITLE2=Tennessee Waltz
TTITLE3=I Went To Your Wedding
TTITLE4=Mockingbird Hill
TTITLE5=Allegheny Moon
TTITLE6=Gentle On My Mind
TTITLE7=You Belong To Me
TTITLE8=Old Cape Cod
TTITLE9=Come What May
TTITLE10=Cross Over The Bridge
TTITLE11=Croce Di Oro
TTITLE12=All My Love
TTITLE13=Mama Doll Song
TTITLE14=Let Me Go, Lover
TTITLE15=With My Eyes Wide Open I'm Dreaming
TTITLE16=Detour
TTITLE17=Every Time You Touch Me
TTITLE18=Mr. And Mississippi
TTITLE19=Hush Hush Sweet Charlotte
EXTD=
EXTT0=
EXTT1=
EXTT2=
EXTT3=
EXTT4=
EXTT5=
EXTT6=
EXTT7=
EXTT8=
EXTT9=
EXTT10=
EXTT11=
EXTT12=
EXTT13=
EXTT14=
EXTT15=
EXTT16=
EXTT17=
EXTT18=
EXTT19=
PLAYORDER=
